<mxfile host="app.diagrams.net" modified="2024-05-31T13:12:23.842Z" agent="Mozilla/5.0 (X11; Linux x86_64) AppleWebKit/537.36 (KHTML, like Gecko) Chrome/121.0.0.0 Safari/537.36" etag="-iLousdOgXvh2bugobag" version="24.0.2" type="device">
  <diagram name="Page-1" id="i7OPidpaT9GX9zENddHf">
    <mxGraphModel dx="1434" dy="786" grid="1" gridSize="10" guides="1" tooltips="1" connect="1" arrows="1" fold="1" page="1" pageScale="1" pageWidth="850" pageHeight="1100" math="0" shadow="0">
      <root>
        <mxCell id="0" />
        <mxCell id="1" parent="0" />
        <mxCell id="kJLinr1LDXQi08zQM-pO-1" value="binarfud-be.id&lt;br&gt;BE BinarFud" style="rounded=0;whiteSpace=wrap;html=1;" vertex="1" parent="1">
          <mxGeometry x="160" y="140" width="130" height="200" as="geometry" />
        </mxCell>
        <mxCell id="kJLinr1LDXQi08zQM-pO-3" value="HTTP Request: POST&lt;br&gt;localhost:8080&lt;span style=&quot;background-color: initial;&quot;&gt;/transfer/08124123123/012412412422/1000000&lt;/span&gt;" style="text;html=1;align=center;verticalAlign=middle;whiteSpace=wrap;rounded=0;" vertex="1" parent="1">
          <mxGeometry x="120" y="360" width="200" height="30" as="geometry" />
        </mxCell>
        <mxCell id="kJLinr1LDXQi08zQM-pO-9" style="edgeStyle=orthogonalEdgeStyle;rounded=0;orthogonalLoop=1;jettySize=auto;html=1;" edge="1" parent="1" source="kJLinr1LDXQi08zQM-pO-6" target="kJLinr1LDXQi08zQM-pO-1">
          <mxGeometry relative="1" as="geometry" />
        </mxCell>
        <mxCell id="kJLinr1LDXQi08zQM-pO-6" value="binarfud.id&lt;div&gt;FE BInarFud&lt;/div&gt;" style="rounded=0;whiteSpace=wrap;html=1;" vertex="1" parent="1">
          <mxGeometry x="380" y="140" width="130" height="200" as="geometry" />
        </mxCell>
        <mxCell id="kJLinr1LDXQi08zQM-pO-8" value="" style="edgeStyle=orthogonalEdgeStyle;rounded=0;orthogonalLoop=1;jettySize=auto;html=1;" edge="1" parent="1" source="kJLinr1LDXQi08zQM-pO-16" target="kJLinr1LDXQi08zQM-pO-6">
          <mxGeometry relative="1" as="geometry" />
        </mxCell>
        <mxCell id="kJLinr1LDXQi08zQM-pO-14" style="edgeStyle=orthogonalEdgeStyle;rounded=0;orthogonalLoop=1;jettySize=auto;html=1;exitX=0.5;exitY=0;exitDx=0;exitDy=0;" edge="1" parent="1" source="kJLinr1LDXQi08zQM-pO-16" target="kJLinr1LDXQi08zQM-pO-12">
          <mxGeometry relative="1" as="geometry" />
        </mxCell>
        <mxCell id="kJLinr1LDXQi08zQM-pO-17" style="edgeStyle=orthogonalEdgeStyle;rounded=0;orthogonalLoop=1;jettySize=auto;html=1;entryX=1;entryY=0.5;entryDx=0;entryDy=0;" edge="1" parent="1" source="kJLinr1LDXQi08zQM-pO-7" target="kJLinr1LDXQi08zQM-pO-16">
          <mxGeometry relative="1" as="geometry" />
        </mxCell>
        <mxCell id="kJLinr1LDXQi08zQM-pO-7" value="nugrah" style="shape=umlActor;verticalLabelPosition=bottom;verticalAlign=top;html=1;outlineConnect=0;" vertex="1" parent="1">
          <mxGeometry x="910" y="475" width="40" height="60" as="geometry" />
        </mxCell>
        <mxCell id="kJLinr1LDXQi08zQM-pO-11" style="edgeStyle=orthogonalEdgeStyle;rounded=0;orthogonalLoop=1;jettySize=auto;html=1;" edge="1" parent="1" source="kJLinr1LDXQi08zQM-pO-10" target="kJLinr1LDXQi08zQM-pO-6">
          <mxGeometry relative="1" as="geometry" />
        </mxCell>
        <mxCell id="kJLinr1LDXQi08zQM-pO-10" value="google.com" style="rounded=0;whiteSpace=wrap;html=1;" vertex="1" parent="1">
          <mxGeometry x="650" y="370" width="120" height="60" as="geometry" />
        </mxCell>
        <mxCell id="kJLinr1LDXQi08zQM-pO-13" style="edgeStyle=orthogonalEdgeStyle;rounded=0;orthogonalLoop=1;jettySize=auto;html=1;entryX=1;entryY=0.25;entryDx=0;entryDy=0;" edge="1" parent="1" source="kJLinr1LDXQi08zQM-pO-12" target="kJLinr1LDXQi08zQM-pO-6">
          <mxGeometry relative="1" as="geometry" />
        </mxCell>
        <mxCell id="kJLinr1LDXQi08zQM-pO-19" value="X" style="edgeLabel;html=1;align=center;verticalAlign=middle;resizable=0;points=[];" vertex="1" connectable="0" parent="kJLinr1LDXQi08zQM-pO-13">
          <mxGeometry x="0.0667" y="-1" relative="1" as="geometry">
            <mxPoint as="offset" />
          </mxGeometry>
        </mxCell>
        <mxCell id="kJLinr1LDXQi08zQM-pO-12" value="evil.com" style="rounded=0;whiteSpace=wrap;html=1;" vertex="1" parent="1">
          <mxGeometry x="650" y="90" width="120" height="60" as="geometry" />
        </mxCell>
        <mxCell id="kJLinr1LDXQi08zQM-pO-18" style="edgeStyle=orthogonalEdgeStyle;rounded=0;orthogonalLoop=1;jettySize=auto;html=1;" edge="1" parent="1" source="kJLinr1LDXQi08zQM-pO-16" target="kJLinr1LDXQi08zQM-pO-10">
          <mxGeometry relative="1" as="geometry" />
        </mxCell>
        <mxCell id="kJLinr1LDXQi08zQM-pO-16" value="" style="image;aspect=fixed;perimeter=ellipsePerimeter;html=1;align=center;shadow=0;dashed=0;fontColor=#4277BB;labelBackgroundColor=default;fontSize=12;spacingTop=3;image=img/lib/ibm/users/browser.svg;" vertex="1" parent="1">
          <mxGeometry x="680" y="220" width="60" height="60" as="geometry" />
        </mxCell>
        <mxCell id="kJLinr1LDXQi08zQM-pO-22" style="edgeStyle=orthogonalEdgeStyle;rounded=0;orthogonalLoop=1;jettySize=auto;html=1;exitX=0;exitY=0.5;exitDx=0;exitDy=0;exitPerimeter=0;" edge="1" parent="1" source="kJLinr1LDXQi08zQM-pO-20" target="kJLinr1LDXQi08zQM-pO-1">
          <mxGeometry relative="1" as="geometry" />
        </mxCell>
        <mxCell id="kJLinr1LDXQi08zQM-pO-20" value="" style="sketch=0;aspect=fixed;pointerEvents=1;shadow=0;dashed=0;html=1;strokeColor=none;labelPosition=center;verticalLabelPosition=bottom;verticalAlign=top;align=center;fillColor=#00188D;shape=mxgraph.mscae.enterprise.android_phone" vertex="1" parent="1">
          <mxGeometry x="690" y="485" width="30" height="50" as="geometry" />
        </mxCell>
        <mxCell id="kJLinr1LDXQi08zQM-pO-21" style="edgeStyle=orthogonalEdgeStyle;rounded=0;orthogonalLoop=1;jettySize=auto;html=1;entryX=1;entryY=0.5;entryDx=0;entryDy=0;entryPerimeter=0;" edge="1" parent="1" source="kJLinr1LDXQi08zQM-pO-7" target="kJLinr1LDXQi08zQM-pO-20">
          <mxGeometry relative="1" as="geometry" />
        </mxCell>
      </root>
    </mxGraphModel>
  </diagram>
</mxfile>
